<svg width="25" height="24" viewBox="0 0 25 24" fill="none" xmlns="http://www.w3.org/2000/svg">
<path d="M12.5667 24C10.9 24 9.33522 23.6833 7.87233 23.05C6.40922 22.4167 5.13144 21.5574 4.039 20.4723C2.94633 19.387 2.08333 18.1129 1.45 16.65C0.816667 15.1871 0.5 13.6223 0.5 11.9557C0.5 10.289 0.816667 8.73156 1.45 7.28333C2.08333 5.83511 2.94633 4.57211 4.039 3.49433C5.13144 2.41656 6.40922 1.56478 7.87233 0.938999C9.33522 0.312999 10.9 0 12.5667 0C14.3593 0 16.0574 0.388889 17.661 1.16667C19.2648 1.94444 20.6408 3.02222 21.789 4.4V1H24.011V8.289H16.7V6.06667H20.2557C19.3001 4.89622 18.1593 3.96289 16.8333 3.26667C15.5073 2.57044 14.0851 2.22233 12.5667 2.22233C9.84822 2.22233 7.52789 3.15744 5.60567 5.02767C3.68344 6.89811 2.72233 9.18522 2.72233 11.889C2.72233 14.637 3.676 16.9721 5.58333 18.8943C7.49067 20.8166 9.81845 21.7777 12.5667 21.7777C15.1962 21.7777 17.4388 20.874 19.2943 19.0667C21.1499 17.2593 22.1296 15.0446 22.2333 12.4223H24.4777C24.3666 15.6592 23.161 18.3981 20.861 20.639C18.561 22.8797 15.7962 24 12.5667 24ZM16.5223 17.489L11.411 12.4223V5.26667H13.6333V11.511L18.1 15.911L16.5223 17.489Z" fill="white"/>
</svg>
