<svg width="182" height="48" viewBox="0 0 182 48" fill="none" xmlns="http://www.w3.org/2000/svg">
<path d="M94.1426 38.1024C83.5107 37.8471 72.4695 38.3813 61.5805 39.0494C63.4125 37.107 65.3415 35.2584 67.36 33.5107C67.9322 33.0182 68.5152 32.5402 69.1018 32.0622C68.7524 33.2627 68.45 34.2096 68.584 35.401C68.7017 36.4475 70.0071 37.2116 70.6807 36.7608C72.4551 35.5572 73.9154 33.9461 74.9392 32.0622C76.0709 32.6869 77.4596 32.7467 78.4482 31.309C79.0662 31.4809 79.6466 31.7671 80.1592 32.1528C80.7024 32.571 81.2456 33.2391 81.8141 32.7467C82.0241 32.5656 82.1074 32.2035 82.1292 31.8323C82.1129 31.3724 82.6977 31.2638 82.6977 31.2638C83.4509 31.2131 84.5228 31.5897 85.1076 31.921C85.9008 32.3921 86.7289 32.8019 87.5845 33.1468C88.8864 33.5886 90.1357 33.8258 91.3868 33.6121C92.1509 33.4655 93.1377 33.2283 93.7406 32.7068C94.1407 32.3338 94.1353 31.8359 94.0919 31.4122C94.0719 31.1968 93.9108 30.7351 93.5686 31.0229C92.9874 31.5245 92.1545 31.8015 91.3198 31.9627C88.8483 32.4334 86.6539 30.6952 84.2258 29.7899C83.0707 29.359 81.8123 29.5491 80.9233 30.4255C80.8333 30.516 80.7498 30.6128 80.6734 30.7151C80.572 30.6536 80.4706 30.592 80.3674 30.5341C79.75 30.1965 79.088 29.9478 78.4011 29.7954C78.2576 29.3698 78.0081 28.9877 77.6762 28.6852C77.3442 28.3827 76.9407 28.1697 76.5036 28.0662C75.2941 27.7331 73.8221 28.9933 73.6754 30.0869C73.6754 30.0869 73.4364 31.7906 72.6416 32.8028C72.3772 33.1377 71.3162 34.3056 70.3403 34.8198C70.3548 33.9507 71.7725 29.8768 71.7725 29.8768C72.1183 29.5763 72.4605 29.2721 72.7936 28.9589C74.3174 27.5057 75.725 25.9353 77.0033 24.2621C77.4982 23.6236 77.9726 22.9688 78.4265 22.2976C82.0241 22.0894 85.6273 21.9554 89.2231 22.0188C89.6215 22.0188 89.7663 21.5172 89.4857 21.2076C89.1381 20.836 88.6625 20.6101 88.1549 20.5757C85.2036 20.5232 82.2432 20.6988 79.2829 20.8383C80.1266 19.4966 80.9577 17.5792 81.2275 16.5489C81.3596 16.0401 80.199 15.2815 79.779 15.573C77.9992 16.7771 76.4963 18.2183 75.0515 19.8008C74.6061 20.2897 74.1824 20.5938 73.784 21.1153C72.0893 21.233 70.3964 21.3869 68.7143 21.5191C62.2993 22.0188 56.0202 22.6869 49.6233 23.3713C47.4668 23.6013 46.0419 23.8348 43.8891 24.0956C43.4074 24.1517 43.7895 24.6387 43.9724 24.7926C44.3345 25.086 44.8523 25.4481 45.3285 25.3901C54.7527 24.273 63.3531 23.3496 72.8226 22.6742C72.4236 23.2754 72.0568 23.8973 71.7236 24.5373C71.0596 25.8589 70.5143 27.2367 70.094 28.6547C69.3155 29.5998 64.1335 33.6556 64.0828 33.7027C64.3054 32.9841 64.4344 32.2398 64.4667 31.4883C65.1909 31.4014 66.0962 31.099 66.719 30.3041C67.5809 29.196 66.9888 27.6697 65.9604 27.3347C65.0135 27.0287 63.4762 26.9962 62.9657 28.3758C62.8262 28.7524 62.8769 29.0258 62.857 29.4477C61.5896 29.3662 60.4091 28.9625 59.0547 28.4899C56.7878 27.7005 54.1063 27.9974 51.7435 28.4899C48.7687 29.1182 46.8385 30.583 43.7225 30.2697C42.3609 30.1321 42.1599 29.5147 42.1599 29.5147C41.8847 28.6782 40.983 28.2201 40.5666 28.4591C39.2738 29.196 37.6461 30.0398 35.9568 30.4508C34.492 30.8129 33.8999 29.7935 33.8999 29.7935C33.8418 29.6883 33.8049 29.5726 33.7913 29.4532C33.7243 28.7054 32.4931 28.0318 32.0585 28.3414C26.5271 32.2777 20.5612 31.2855 20.5612 31.2855C21.557 30.6626 22.4478 29.9981 23.1775 29.0729C23.6247 28.5062 24.3363 27.5864 24.224 26.806C24.0701 25.7486 22.6796 25.2906 21.7507 25.5622C21.7507 25.5622 18.9063 26.3914 17.6696 28.671C17.1844 29.5618 17.1264 30.4653 17.6081 31.1877C16.1777 31.9934 15.1167 32.6362 13.2445 33.393C13.096 33.451 12.9584 33.5343 12.8154 33.6031C12.3844 33.8113 13.5613 34.7184 14.043 34.5392C15.716 33.9265 17.3304 33.1642 18.8664 32.2614C18.8664 32.2614 20.4652 33.8421 26.9236 32.4153C28.7958 32.0025 30.5449 31.1732 32.2668 30.3132C32.6046 30.7265 33.0054 31.0839 33.4545 31.3724C35.7214 32.8408 38.4536 31.6295 40.6155 30.4327C41.4309 31.0988 42.3887 31.5684 43.4147 31.8051C45.0623 32.1836 46.8548 31.8051 48.4246 31.3181C50.5068 30.6826 52.3356 29.9511 54.5047 29.6541C55.6345 29.5002 56.9544 29.5093 58.0571 29.8189C59.1308 30.1213 60.1664 30.525 61.222 30.8799C61.7013 31.045 62.1921 31.1745 62.6904 31.2674C62.6904 31.3597 62.6741 31.4484 62.6597 31.5426C62.5148 32.4189 62.1273 33.2645 61.7544 34.0575C60.8629 35.87 59.8173 37.6025 58.6292 39.2359C54.2693 39.5129 49.9383 39.8008 45.6834 40.0579C30.7386 40.9632 16.5326 42.0713 1.60045 43.1233L0.226197 43.2192C-0.646517 43.2826 1.24195 44.6442 1.89739 44.5971C20.3366 43.2844 38.8338 41.8106 57.3202 40.7731C56.1348 42.1612 54.9966 43.5868 53.9054 45.0497C53.7424 45.2682 53.5819 45.4891 53.4237 45.7124C53.1467 46.1053 54.769 47.342 55.0859 46.9708C56.8259 44.9375 58.5351 42.8535 60.0976 40.6717L60.1465 40.6174C70.4924 40.0633 80.8418 39.6541 91.184 39.4948C92.5836 39.4731 93.985 39.4658 95.3864 39.4948C96.6774 39.5292 94.7817 38.1169 94.1426 38.1024ZM76.6104 29.4115C76.9345 29.3065 77.0051 29.7501 76.9925 29.9275C76.9055 31.0411 76.0872 31.195 75.247 30.9867C75.2735 30.6133 75.42 30.2585 75.6648 29.9752C75.9095 29.6919 76.2393 29.4955 76.605 29.4151L76.6104 29.4115ZM75.2597 22.4787L76.0039 22.4388C75.448 23.1902 73.2879 26.0094 72.6361 26.6431C73.0145 25.9442 74.7057 23.1776 75.2543 22.4823L75.2597 22.4787ZM22.6234 27.0613C22.2215 27.6806 21.289 28.5985 20.7404 29.053C20.1918 29.5075 19.721 30.0018 19.1109 30.3892C18.555 29.2033 21.0953 26.7626 22.6234 27.0613Z" fill="black"/>
<path d="M4.97608 35.4986L5.0648 35.5638C5.22986 35.71 5.41229 35.8353 5.60798 35.9368C6.15116 36.2682 6.7722 36.5235 7.27555 36.1758C7.90927 35.7358 8.34019 34.9356 8.72404 34.291C9.37405 33.2046 9.93534 32.0639 10.4876 30.9269C11.8057 28.2109 13.0224 25.4443 14.346 22.7338C15.517 20.3772 16.9045 18.1345 18.4905 16.0346C20.7628 12.9692 29.4917 2.01865 34.9073 1.8394C34.2754 3.28789 31.4671 5.97664 29.6239 7.74199C27.4095 9.86222 25.1354 11.9336 22.9102 14.0447C20.4894 16.3496 18.065 18.7831 16.7034 21.8919C16.3159 22.7719 15.9013 23.9397 16.0081 24.9283C16.1077 25.5982 16.6183 25.9422 17.08 26.1957C17.3118 26.3243 17.8948 26.4872 17.8423 25.9368C17.6612 24.2131 18.7657 22.2178 19.6312 20.8399C21.3712 18.0679 23.877 15.8427 26.2489 13.6229C28.5176 11.4972 30.8117 9.39689 33.0242 7.21329C34.5361 5.72135 36.3123 4.0755 37.2629 2.14358C37.5218 1.61489 37.5073 1.23828 37.0293 0.876156C36.2345 0.269601 35.3998 -0.114248 34.3967 0.0306009C31.1865 0.479632 28.2786 2.71755 25.8977 4.77078C22.9355 7.32736 20.3355 10.304 17.9256 13.382C16.2073 15.5548 14.5506 17.7999 13.2578 20.2624C12.9373 20.8762 12.2493 22.1327 12.2258 22.1544C10.782 23.4072 9.42509 24.7569 8.16456 26.1939C6.44629 28.1349 4.18122 30.7748 4.19933 33.5323C4.20476 34.2367 4.3822 35.0695 4.97608 35.4986ZM6.2254 33.1449C6.81747 30.954 9.43742 27.2622 11.0108 25.5403C10.8443 25.9024 9.8774 27.8543 9.71082 28.2128C8.72223 30.3167 7.53809 32.5799 6.02261 34.597C6.02515 34.1072 6.09335 33.6201 6.2254 33.1485V33.1449Z" fill="black"/>
<path d="M40.6455 26.1542C40.8976 26.3957 41.1982 26.5809 41.5273 26.6974C41.7121 26.7679 41.917 26.7645 42.0994 26.688C42.2818 26.6115 42.4277 26.4676 42.5068 26.2864C42.6644 25.9007 42.4344 25.5042 42.0922 25.2724C41.7156 25.0153 41.6957 24.5264 41.3969 24.2422C41.0982 23.9579 40.7705 23.8529 40.3848 24.2042C40.278 24.3001 39.9847 24.5663 40.1078 25.3086C40.1928 25.6404 40.3812 25.9365 40.6455 26.1542Z" fill="black"/>
<path d="M116.154 20.143C116.418 19.7286 116.555 19.2457 116.547 18.7543C116.561 18.4064 116.5 18.0596 116.367 17.7376C116.235 17.4157 116.034 17.1263 115.779 16.8893C115.272 16.4295 114.588 16.1977 113.744 16.1977H110.91V25.0117H112.375V21.2946H113.166C113.988 21.2946 114.629 21.204 115.075 21.0248C115.518 20.852 115.896 20.5434 116.154 20.143ZM114.68 19.6469C114.371 19.8809 113.989 19.9959 113.603 19.971H112.375V17.5194H113.528C114.549 17.5194 115.044 17.9142 115.044 18.7235C115.056 18.8948 115.029 19.0666 114.966 19.2264C114.903 19.3861 114.805 19.5298 114.68 19.6469Z" fill="black"/>
<path d="M118.838 21.2456H122.347V19.9148H118.838V17.5321H122.47V16.2085H117.379V24.999H122.588V23.6755H118.838V21.2456Z" fill="black"/>
<path d="M125.086 18.6057L130.614 24.9718L130.648 25.0117H131.872V16.2085H130.475V22.6724L124.898 16.2483L124.863 16.2085H123.699V25.0117H125.086V18.6057Z" fill="black"/>
<path d="M134.948 16.2085H133.488V25.0117H134.948V16.2085Z" fill="black"/>
<path d="M138.037 18.6057L143.565 24.9718L143.6 25.0117H144.824V16.2085H143.426V22.6724L137.849 16.2483L137.815 16.2085H136.652V25.0117H138.037V18.6057Z" fill="black"/>
<path d="M154.096 24.4141L154.165 24.3833V20.5593H151.058V21.8919H152.707V23.4762L152.671 23.487C152.117 23.6867 151.535 23.7991 150.946 23.8202C149.972 23.8202 149.164 23.5196 148.547 22.9257C147.952 22.314 147.619 21.4942 147.619 20.6408C147.619 19.7873 147.952 18.9675 148.547 18.3558C148.845 18.055 149.202 17.8181 149.595 17.6594C149.988 17.5007 150.41 17.4234 150.833 17.4324C151.888 17.4532 152.919 17.7544 153.819 18.3051L154 18.4065V16.8674L153.928 16.8367C153.388 16.6012 152.831 16.4081 152.262 16.2591C151.802 16.1501 151.331 16.096 150.859 16.0979C150.236 16.0804 149.615 16.1871 149.034 16.4118C148.453 16.6366 147.922 16.9749 147.473 17.407C147.031 17.8293 146.682 18.3394 146.449 18.9043C146.216 19.4693 146.103 20.0768 146.119 20.6878C146.107 21.2742 146.218 21.8565 146.443 22.3981C146.668 22.9398 147.002 23.4289 147.426 23.8347C148.293 24.6802 149.466 25.1021 150.909 25.1021C152.008 25.0941 153.092 24.8599 154.096 24.4141Z" fill="black"/>
<path d="M157.935 25.0117H159.399V17.5194H162.387V16.1977H154.996V17.5194H157.935V25.0117Z" fill="black"/>
<path d="M170.208 17.3765C169.295 16.5147 168.076 16.0504 166.821 16.0855C165.472 16.0855 164.338 16.5201 163.453 17.3765C163.017 17.7974 162.673 18.3046 162.443 18.8656C162.213 19.4267 162.103 20.0295 162.119 20.6356C162.104 21.2316 162.214 21.8241 162.442 22.3748C162.671 22.9256 163.012 23.4224 163.444 23.8331C163.885 24.2524 164.404 24.5803 164.972 24.7978C165.54 25.0153 166.146 25.1182 166.754 25.1006C168.13 25.1006 169.289 24.6733 170.194 23.8331C170.639 23.4247 170.992 22.9258 171.228 22.3699C171.464 21.8141 171.579 21.2141 171.565 20.6103C171.578 20.0063 171.464 19.4062 171.231 18.8491C170.997 18.2919 170.649 17.7902 170.208 17.3765ZM169.146 22.8445C168.518 23.4234 167.697 23.7463 166.843 23.7497C165.99 23.753 165.166 23.4366 164.534 22.8627C164.237 22.5748 164.003 22.2283 163.847 21.8452C163.692 21.4621 163.617 21.0508 163.629 20.6374C163.615 20.2177 163.688 19.7997 163.843 19.4098C163.999 19.0199 164.234 18.6666 164.534 18.3723C164.845 18.076 165.212 17.8447 165.613 17.692C166.014 17.5393 166.442 17.4684 166.872 17.4833C167.291 17.4742 167.709 17.5487 168.1 17.7026C168.49 17.8564 168.847 18.0866 169.147 18.3796C169.446 18.6635 169.683 19.0065 169.842 19.3868C170.001 19.7671 170.079 20.1764 170.071 20.5885C170.081 21.0081 170.004 21.4251 169.844 21.8134C169.685 22.2016 169.447 22.5527 169.146 22.8445Z" fill="black"/>
<path d="M179.654 16.2085V22.6724L174.08 16.2483L174.045 16.2085H172.883V25.0117H174.268V18.6057L179.794 24.9718L179.83 25.0117H181.052V16.2085H179.654Z" fill="black"/>
<path d="M112.448 28.852H110.988V37.6552H112.448V28.852Z" fill="black"/>
<path d="M120.926 35.3141L115.349 28.8919L115.315 28.852H114.152V37.6552H115.537V31.2475L121.065 37.6154L121.1 37.6552H122.324V28.852H120.926V35.3141Z" fill="black"/>
<path d="M126.938 32.8335L126.009 32.2794C125.678 32.1014 125.379 31.8709 125.122 31.5969C124.96 31.4207 124.869 31.1914 124.865 30.9523C124.864 30.8287 124.894 30.707 124.954 30.5986C125.013 30.4902 125.099 30.3988 125.203 30.333C125.475 30.1526 125.797 30.0632 126.123 30.0777C126.8 30.0777 127.445 30.3656 128.037 30.936L128.233 31.117V29.3897L128.182 29.3571C127.583 28.9476 126.874 28.7303 126.149 28.7343C125.453 28.706 124.773 28.9421 124.246 29.3951C124.003 29.6122 123.812 29.8796 123.684 30.1786C123.556 30.4776 123.495 30.801 123.505 31.1261C123.497 31.5798 123.635 32.0241 123.898 32.3935C124.251 32.8348 124.687 33.2037 125.18 33.4799L126.112 34.0466C126.824 34.4902 127.186 34.9519 127.186 35.4317C127.188 35.5693 127.158 35.7055 127.099 35.8296C127.04 35.9537 126.952 36.0623 126.844 36.1469C126.594 36.3482 126.279 36.453 125.958 36.442C125.129 36.442 124.385 36.0328 123.748 35.2253L123.541 34.9628V36.92L123.588 36.9544C124.272 37.4777 125.11 37.7603 125.971 37.7584C126.659 37.7852 127.331 37.5429 127.843 37.083C128.082 36.8581 128.27 36.5847 128.395 36.2812C128.52 35.9777 128.579 35.6511 128.568 35.3231C128.564 34.3128 128.017 33.4799 126.938 32.8335Z" fill="black"/>
<path d="M128.953 30.1628H131.892V37.6551H133.357V30.1628H136.346V28.8392H128.953V30.1628Z" fill="black"/>
<path d="M138.745 28.852H137.285V37.6552H138.745V28.852Z" fill="black"/>
<path d="M139.684 30.1628H142.622V37.6551H144.085V30.1628H147.075V28.8392H139.684V30.1628Z" fill="black"/>
<path d="M153.966 33.8421C153.966 34.4993 153.915 34.9665 153.814 35.229C153.711 35.4923 153.544 35.7253 153.327 35.9062C152.841 36.2845 152.236 36.4771 151.621 36.4493C151.179 36.4591 150.741 36.3662 150.341 36.1777C150.014 36.0221 149.739 35.7742 149.55 35.4644C149.369 35.1692 149.289 34.6224 149.289 33.8348V28.852H147.824V33.8203C147.805 34.3422 147.853 34.8643 147.967 35.3738C148.048 35.6724 148.17 35.9583 148.33 36.223C148.48 36.4578 148.663 36.67 148.873 36.8531C149.566 37.4506 150.502 37.7584 151.636 37.7584C152.769 37.7584 153.676 37.4524 154.373 36.8531C154.584 36.6728 154.767 36.4623 154.917 36.2284C155.077 35.9578 155.199 35.6658 155.279 35.3612C155.393 34.8621 155.443 34.3503 155.427 33.8384V28.852H153.966V33.8421Z" fill="black"/>
<path d="M156.168 30.1628H159.105V37.6551H160.571V30.1628H163.557V28.8392H156.168V30.1628Z" fill="black"/>
<path d="M165.948 33.8873H169.457V32.5565H165.948V30.1756H169.58V28.852H164.488V37.6425H169.696V36.319H165.948V33.8873Z" fill="black"/>
<path d="M104.121 9.10733H102.98V44.7329H104.121V9.10733Z" fill="black"/>
</svg>
